<svg xmlns="http://www.w3.org/2000/svg" width="138" height="55" fill="none"><path fill="#D1D5DB" d="M9.977 1.56C6.13 2.727 3.682 4.942 1.7 9.08c-3.846 8.042-.99 16.085 6.76 18.998 3.264 1.166 11.947 1.69 13.463.7.35-.233.699-2.448.816-5.245.233-5.828 0-6.061-5.42-5.828-3.847.175-4.896 1.049-2.565 2.098 1.69.758 2.39 2.856 1.865 5.128-.35 1.283-.64 1.457-1.981 1.108-4.488-1.108-6.178-3.963-6.178-10.49-.058-3.847.233-5.07 1.34-7.052 2.623-4.662-2.505-4.313 63.64-4.313 42.427 0 59.212.175 59.794.641.875.758 1.108 13.929.233 13.929-.291 0-2.389-2.506-4.662-5.537l-4.138-5.536h-3.496c-1.923 0-3.497.117-3.497.291 0 .175.408.933.932 1.69.7 1.166.816 2.856.642 9.208-.117 4.255-.408 8.334-.642 9.092-.466 1.282-.407 1.34 1.749 1.166l2.273-.175.175-6.003c.058-3.264.407-5.944.699-5.944.233 0 2.214 2.622 4.312 5.828 3.905 6.002 4.838 6.702 8.276 6.294l1.69-.175.175-12.18c.175-13.754 0-14.395-3.788-15.444-1.457-.408-22.146-.641-61.95-.583-48.138 0-60.202.175-62.241.816Z"/><path fill="#D1D5DB" d="M33.23 7.68c-2.681.641-6.47 3.38-7.868 5.77-.7 1.282-1.107 3.088-1.165 5.303-.059 2.797.233 3.672 1.631 5.478 2.157 2.798 4.488 4.255 8.45 5.07 6.236 1.283 13.172-1.282 15.62-5.769 4.72-8.567-1.108-16.61-11.89-16.376-1.515.058-3.671.291-4.778.524Zm7.576 3.672c.524.408 1.515 1.632 2.214 2.739 3.963 6.527-2.739 15.385-8.333 11.014-4.138-3.263-4.43-9.499-.583-13.054 1.748-1.632 5.07-1.923 6.702-.7ZM73.092 18.229v11.13l7.285-.232c8.392-.292 11.19-1.283 13.695-4.954 1.865-2.797 2.04-8.217.35-11.015-2.74-4.487-6.819-6.002-15.794-6.06h-5.536v11.13Zm13.462-5.653c1.807 1.806 1.982 2.33 1.982 5.245 0 5.42-1.924 7.925-6.061 7.925h-2.098v-7.168c0-3.963.174-7.401.407-7.576 1.05-1.107 3.905-.291 5.77 1.573ZM98.326 17.413c.117 5.71.292 10.723.408 11.072.175.583 2.332.758 8.101.758 7.46 0 7.926-.058 8.742-1.282 1.282-1.865 1.224-3.672-.058-3.03-.583.29-2.856.524-5.129.524h-4.079v-5.828l2.739-.175c2.039-.116 3.03-.524 3.671-1.457.466-.699.874-1.457.874-1.69 0-.233-1.631-.466-3.613-.582l-3.671-.175-.175-2.098c-.233-2.973.816-3.73 4.371-2.914 2.389.524 2.914.466 3.555-.35.349-.524.699-1.457.699-2.04 0-.99-.699-1.049-8.276-1.049h-8.333l.174 10.316ZM54.035 17.704c.117 5.77.466 10.373.816 10.781.408.525 2.564.758 6.818.758 6.586 0 7.81-.408 8.334-2.68.292-1.225.117-1.283-3.846-1.166l-4.138.058V7.68H53.86l.175 10.024ZM5.955 33.556C2.925 35.013.943 37.286.185 40.2c-.582 2.214.35 7.517 1.69 9.499 2.448 3.613 8.684 5.42 16.144 4.779 3.38-.35 3.613-.408 4.429-2.39.466-1.107.7-2.156.583-2.33-.175-.117-1.515.174-3.03.698-3.38 1.166-5.654 1.166-7.694.117-3.671-1.923-5.478-5.536-4.662-9.266 1.282-5.886 4.896-7.401 11.131-4.779.933.408 1.05.175.875-1.807l-.175-2.272-5.245-.175c-4.546-.117-5.653.058-8.276 1.282ZM34.395 33.031c-6.294 1.749-9.907 6.527-9.208 12.297.7 6.236 6.702 10.024 15.153 9.383 8.974-.583 14.453-8.276 11.247-15.735-2.214-5.245-10.024-7.926-17.192-5.945Zm8.509 4.663c1.981 2.272 2.739 5.42 1.981 8.275-1.981 7.401-10.082 7.227-12.355-.35-2.04-6.818 5.945-12.937 10.374-7.925ZM55.26 32.565c-.06.291 0 .7.116 1.05.116.29.35 5.011.524 10.49l.292 9.907 3.788.174 3.846.175-.058-4.837v-4.837l3.03-.175c3.147-.175 4.663-1.224 4.022-2.739-.234-.64-1.224-.874-3.847-.874h-3.497v-2.564c0-3.147.875-3.614 5.012-2.681 2.506.583 2.914.524 3.614-.408.408-.583.64-1.399.582-1.923-.174-.7-1.631-.874-8.8-1.05-4.72-.058-8.625.059-8.625.292ZM76.239 32.565c-.058.291 0 .7.117 1.05.116.29.35 5.011.524 10.49l.291 9.907 3.788.174 3.847.175-.058-4.837v-4.837l3.03-.175c3.147-.175 4.662-1.224 4.021-2.739-.233-.64-1.224-.874-3.846-.874h-3.497v-2.564c0-3.147.874-3.614 5.012-2.681 2.506.583 2.914.524 3.613-.408.408-.583.641-1.399.583-1.923-.175-.7-1.632-.874-8.8-1.05-4.72-.058-8.625.059-8.625.292ZM97.22 32.565c-.06.291 0 .7.057 1.049.117.291.117 4.779.117 9.85-.058 5.944.175 9.615.583 10.081.466.583 2.681.758 8.392.758h7.809l.991-2.04c1.224-2.506.816-2.972-1.574-1.748-1.165.582-2.855.874-4.837.757l-3.03-.175-.175-3.38-.175-3.322h2.856c2.972 0 4.196-.699 4.196-2.447 0-.874-.525-1.05-3.555-1.05h-3.497l.175-2.797c.175-3.03.524-3.205 5.245-2.272 1.865.407 2.273.291 2.797-.758 1.399-2.622.641-2.914-8.159-2.914-4.487 0-8.217.175-8.217.408ZM119.307 41.89c.058 5.42.291 10.373.408 11.072.291 1.34.466 1.34 8.508 1.34h8.159l.874-2.039c1.108-2.739 1.108-2.739-1.282-1.748-2.564 1.049-7.459 1.165-8.217.116-.291-.35-.466-1.632-.408-2.739.058-1.107.175-2.39.175-2.797.058-.466 1.049-.7 2.914-.7 2.972 0 4.546-1.049 3.963-2.564-.233-.583-1.399-.932-3.73-1.049l-3.38-.175-.175-2.098c-.233-3.03.816-3.73 4.604-2.913 2.681.582 3.089.524 3.788-.35.466-.583.758-1.457.641-1.923-.116-.7-1.632-.874-8.567-1.05l-8.45-.174.175 9.79Z"/></svg>